<svg width="281" height="63" viewBox="0 0 281 63" fill="none" xmlns="http://www.w3.org/2000/svg">
<path d="M96.5961 46.3211C103.038 46.3211 108.26 41.0989 108.26 34.6571C108.26 28.2152 103.038 22.9931 96.5961 22.9931C90.1543 22.9931 84.9321 28.2152 84.9321 34.6571C84.9321 41.0989 90.1543 46.3211 96.5961 46.3211Z" fill="#E04215"/>
<path d="M93.0888 34.6571C93.0881 34.1471 93.1988 33.6432 93.4134 33.1806C93.6279 32.7181 93.9411 32.308 94.3308 31.9792C94.6777 31.6838 94.956 31.3164 95.1464 30.9025C95.3369 30.4887 95.4348 30.0383 95.4335 29.5827C95.4335 26.8865 92.2734 25.4333 90.2225 27.1835C89.1395 28.1045 88.2696 29.2498 87.6731 30.5403C87.0765 31.8307 86.7675 33.2354 86.7675 34.6571C86.7675 36.0787 87.0765 37.4834 87.6731 38.7738C88.2696 40.0643 89.1395 41.2097 90.2225 42.1307C92.2745 43.8808 95.4335 42.4277 95.4335 39.7314C95.4349 39.2762 95.3371 38.826 95.147 38.4124C94.9568 37.9987 94.6789 37.6314 94.3324 37.336C93.9423 37.0072 93.6288 36.597 93.414 36.1342C93.1991 35.6715 93.0882 35.1673 93.0888 34.6571V34.6571Z" fill="#D12B10"/>
<path d="M106.424 34.6571C106.424 33.2352 106.115 31.8304 105.518 30.5399C104.921 29.2494 104.051 28.1041 102.968 27.1835C100.916 25.4333 97.7566 26.8865 97.7566 29.5827C97.7553 30.0383 97.8532 30.4887 98.0436 30.9025C98.2341 31.3164 98.5124 31.6838 98.8593 31.9792C99.2489 32.3083 99.562 32.7184 99.7767 33.181C99.9915 33.6435 100.103 34.1473 100.103 34.6573C100.103 35.1673 99.9915 35.6712 99.7767 36.1337C99.562 36.5963 99.2489 37.0064 98.8593 37.3355C98.5124 37.6308 98.2341 37.9981 98.0437 38.4119C97.8533 38.8256 97.7553 39.2759 97.7566 39.7314V39.7314C97.7566 42.4277 100.917 43.8808 102.968 42.1307C104.051 41.21 104.921 40.0648 105.518 38.7743C106.115 37.4837 106.424 36.0789 106.424 34.6571V34.6571Z" fill="#D12B10"/>
<path d="M100.104 34.6571C100.104 33.9304 99.8777 33.2217 99.4574 32.6289C99.0371 32.0361 98.4432 31.5883 97.7577 31.3474V23.9899H95.4357V31.3474C94.751 31.5892 94.1583 32.0373 93.739 32.6301C93.3197 33.2228 93.0945 33.931 93.0945 34.6571C93.0945 35.3831 93.3197 36.0913 93.739 36.684C94.1583 37.2768 94.751 37.7249 95.4357 37.9667V45.3248H97.7577V37.9667C98.4432 37.7258 99.0371 37.278 99.4574 36.6852C99.8777 36.0924 100.104 35.3837 100.104 34.6571Z" fill="#E04215"/>
<path d="M92.1562 29.1334C91.9794 29.1016 91.8225 29.0009 91.72 28.8534C91.6174 28.7059 91.5777 28.5237 91.6095 28.3469C91.6413 28.1701 91.742 28.0132 91.8895 27.9106C92.037 27.8081 92.2192 27.7683 92.396 27.8001C92.5801 27.8331 93.0154 27.9886 93.3961 28.1814C93.7768 28.3742 94.104 28.6047 94.0711 28.7889C94.0381 28.973 93.6515 29.0751 93.2271 29.1237C92.8026 29.1723 92.342 29.1663 92.1562 29.1334Z" fill="#FED173"/>
<path d="M89.858 30.2917C89.7705 30.276 89.6869 30.2432 89.612 30.1952C89.5371 30.1472 89.4725 30.0849 89.4217 30.0119C89.3709 29.9389 89.3349 29.8566 89.316 29.7697C89.297 29.6828 89.2953 29.593 89.311 29.5055C89.3267 29.4179 89.3595 29.3343 89.4075 29.2595C89.4555 29.1846 89.5178 29.1199 89.5908 29.0691C89.6638 29.0183 89.7461 28.9824 89.833 28.9634C89.9199 28.9444 90.0097 28.9427 90.0972 28.9584C90.2814 28.9914 90.7166 29.1469 91.0973 29.3397C91.478 29.5325 91.8047 29.763 91.7718 29.9466C91.7388 30.1302 91.3527 30.2334 90.9283 30.282C90.5038 30.3306 90.0411 30.3246 89.858 30.2917Z" fill="#FED173"/>
<path d="M91.478 32.368C91.3905 32.3523 91.3069 32.3195 91.232 32.2715C91.1571 32.2235 91.0925 32.1612 91.0417 32.0882C90.9909 32.0152 90.9549 31.9329 90.936 31.846C90.917 31.7591 90.9153 31.6693 90.931 31.5818C90.9467 31.4942 90.9795 31.4106 91.0275 31.3358C91.0755 31.2609 91.1378 31.1962 91.2108 31.1454C91.2838 31.0946 91.3661 31.0587 91.453 31.0397C91.5399 31.0207 91.6297 31.019 91.7172 31.0347C91.9008 31.0682 92.3361 31.2232 92.7173 31.416C93.0985 31.6088 93.4247 31.8393 93.3918 32.0235C93.3588 32.2076 92.9722 32.3097 92.5483 32.3583C92.1244 32.4069 91.6616 32.402 91.478 32.368Z" fill="#FED173"/>
<path d="M88.67 33.0624C88.4968 33.0271 88.3443 32.9254 88.2451 32.7791C88.1458 32.6329 88.1077 32.4536 88.1389 32.2796C88.1701 32.1056 88.268 31.9507 88.4118 31.8479C88.5557 31.7452 88.734 31.7028 88.9087 31.7297C89.0928 31.7627 89.5281 31.9176 89.9093 32.1077C90.2905 32.2978 90.6167 32.5311 90.5838 32.7152C90.5508 32.8994 90.1642 33.002 89.7397 33.0506C89.3153 33.0992 88.8558 33.0959 88.67 33.0624Z" fill="#FED173"/>
<path d="M88.9297 37.8085C88.8431 37.8314 88.7528 37.8369 88.664 37.8246C88.5753 37.8124 88.4898 37.7826 88.4126 37.7371C88.3355 37.6916 88.2681 37.6312 88.2144 37.5594C88.1607 37.4877 88.1218 37.406 88.1 37.3191C88.0781 37.2322 88.0737 37.1418 88.087 37.0532C88.1003 36.9646 88.1311 36.8795 88.1775 36.8029C88.224 36.7262 88.2852 36.6596 88.3576 36.6068C88.43 36.554 88.5121 36.516 88.5993 36.4952C88.7802 36.4499 89.2408 36.4121 89.6674 36.431C90.094 36.4499 90.4866 36.5255 90.5314 36.7069C90.5762 36.8883 90.2673 37.1389 89.9007 37.3592C89.534 37.5795 89.1112 37.7631 88.9297 37.8085Z" fill="#FED173"/>
<path d="M91.802 39.0397C91.6488 39.1334 91.4646 39.1623 91.29 39.1202C91.1154 39.0781 90.9647 38.9683 90.871 38.8151C90.7774 38.6618 90.7484 38.4776 90.7906 38.3031C90.8327 38.1285 90.9424 37.9778 91.0957 37.8841C91.255 37.7864 91.6837 37.6141 92.0963 37.5061C92.5089 37.3981 92.9063 37.3527 93.004 37.512C93.1018 37.6713 92.8809 38.0051 92.5958 38.322C92.3107 38.639 91.964 38.942 91.802 39.0397Z" fill="#FED173"/>
<path d="M92.1638 41.5556C92.0106 41.6492 91.8264 41.6782 91.6518 41.636C91.4772 41.5939 91.3265 41.4842 91.2328 41.3309C91.1392 41.1777 91.1102 40.9935 91.1524 40.8189C91.1945 40.6443 91.3042 40.4936 91.4575 40.4C91.6168 40.3028 92.0455 40.13 92.4581 40.022C92.8707 39.914 93.2681 39.8686 93.3658 40.0284C93.4636 40.1883 93.2427 40.5209 92.9576 40.8384C92.6725 41.156 92.3231 41.4578 92.1638 41.5556Z" fill="#FED173"/>
<path d="M101.055 29.1334C101.143 29.1177 101.227 29.0849 101.301 29.0369C101.376 28.9889 101.441 28.9266 101.492 28.8536C101.543 28.7806 101.579 28.6983 101.597 28.6114C101.616 28.5245 101.618 28.4347 101.602 28.3472C101.587 28.2596 101.554 28.176 101.506 28.1012C101.458 28.0263 101.396 27.9616 101.323 27.9108C101.25 27.86 101.167 27.8241 101.08 27.8051C100.994 27.7861 100.904 27.7844 100.816 27.8001C100.632 27.8331 100.197 27.9886 99.8161 28.1814C99.4354 28.3742 99.1082 28.6047 99.1417 28.7889C99.1752 28.973 99.5607 29.0751 99.9852 29.1237C100.41 29.1723 100.874 29.1663 101.055 29.1334Z" fill="#FED173"/>
<path d="M103.355 30.2917C103.442 30.276 103.526 30.2432 103.601 30.1952C103.676 30.1472 103.74 30.0849 103.791 30.0119C103.842 29.9389 103.878 29.8566 103.897 29.7697C103.916 29.6828 103.917 29.593 103.902 29.5055C103.886 29.4179 103.853 29.3343 103.805 29.2595C103.757 29.1846 103.695 29.1199 103.622 29.0691C103.549 29.0183 103.467 28.9824 103.38 28.9634C103.293 28.9444 103.203 28.9427 103.116 28.9584C102.931 28.9914 102.496 29.1469 102.115 29.3397C101.735 29.5325 101.408 29.763 101.441 29.9466C101.474 30.1302 101.86 30.2334 102.284 30.282C102.709 30.3306 103.171 30.3246 103.355 30.2917Z" fill="#FED173"/>
<path d="M102.482 35.4849C102.57 35.4692 102.653 35.4364 102.728 35.3883C102.803 35.3402 102.868 35.2779 102.919 35.2048C102.97 35.1317 103.006 35.0493 103.025 34.9624C103.044 34.8754 103.046 34.7855 103.03 34.6978C103.014 34.6102 102.981 34.5265 102.933 34.4515C102.885 34.3765 102.823 34.3118 102.75 34.2609C102.677 34.21 102.594 34.1741 102.507 34.155C102.42 34.136 102.331 34.1343 102.243 34.15C102.059 34.1829 101.624 34.3379 101.243 34.5307C100.862 34.7235 100.535 34.9541 100.568 35.1382C100.601 35.3223 100.988 35.4249 101.412 35.4735C101.836 35.5221 102.298 35.5184 102.482 35.4849Z" fill="#FED173"/>
<path d="M104.54 33.0624C104.713 33.0271 104.865 32.9254 104.964 32.7791C105.064 32.6329 105.102 32.4536 105.071 32.2796C105.039 32.1056 104.942 31.9507 104.798 31.8479C104.654 31.7452 104.476 31.7028 104.301 31.7297C104.117 31.7627 103.681 31.9176 103.3 32.1077C102.919 32.2978 102.593 32.5311 102.626 32.7152C102.659 32.8994 103.045 33.002 103.47 33.0506C103.894 33.0992 104.356 33.0959 104.54 33.0624Z" fill="#FED173"/>
<path d="M104.282 37.8085C104.368 37.8302 104.458 37.8348 104.546 37.8219C104.634 37.8089 104.718 37.7788 104.795 37.7332C104.871 37.6876 104.938 37.6274 104.991 37.5561C105.044 37.4847 105.082 37.4036 105.104 37.3174C105.126 37.2311 105.13 37.1415 105.117 37.0535C105.105 36.9655 105.074 36.8809 105.029 36.8046C104.983 36.7282 104.923 36.6616 104.852 36.6085C104.78 36.5555 104.699 36.517 104.613 36.4952C104.432 36.4499 103.971 36.4121 103.544 36.431C103.118 36.4499 102.725 36.5255 102.68 36.7069C102.635 36.8883 102.944 37.1389 103.311 37.3592C103.678 37.5795 104.101 37.7631 104.282 37.8085Z" fill="#FED173"/>
<path d="M101.048 41.5556C101.201 41.6492 101.385 41.6782 101.56 41.636C101.734 41.5939 101.885 41.4842 101.979 41.3309C102.073 41.1777 102.101 40.9935 102.059 40.8189C102.017 40.6443 101.907 40.4936 101.754 40.4C101.595 40.3028 101.166 40.13 100.754 40.022C100.341 39.914 99.9436 39.8686 99.8458 40.0284C99.7481 40.1883 99.969 40.5209 100.254 40.8384C100.539 41.156 100.889 41.4578 101.048 41.5556Z" fill="#FED173"/>
<path d="M53.5961 46.3211C60.038 46.3211 65.2601 41.0989 65.2601 34.6571C65.2601 28.2152 60.038 22.9931 53.5961 22.9931C47.1543 22.9931 41.9321 28.2152 41.9321 34.6571C41.9321 41.0989 47.1543 46.3211 53.5961 46.3211Z" fill="#E04215"/>
<path d="M50.0888 34.6571C50.0881 34.1471 50.1988 33.6432 50.4134 33.1806C50.6279 32.7181 50.9411 32.308 51.3308 31.9792C51.6777 31.6838 51.956 31.3164 52.1464 30.9025C52.3369 30.4887 52.4348 30.0383 52.4335 29.5827C52.4335 26.8865 49.2734 25.4333 47.2225 27.1835C46.1395 28.1045 45.2696 29.2498 44.6731 30.5403C44.0765 31.8307 43.7675 33.2354 43.7675 34.6571C43.7675 36.0787 44.0765 37.4834 44.6731 38.7738C45.2696 40.0643 46.1395 41.2097 47.2225 42.1307C49.2745 43.8808 52.4335 42.4277 52.4335 39.7314C52.4349 39.2762 52.3371 38.826 52.147 38.4124C51.9568 37.9987 51.6789 37.6314 51.3324 37.336C50.9423 37.0072 50.6288 36.597 50.414 36.1342C50.1991 35.6715 50.0882 35.1673 50.0888 34.6571V34.6571Z" fill="#D12B10"/>
<path d="M63.4236 34.6571C63.4239 33.2352 63.1149 31.8304 62.5182 30.5399C61.9214 29.2494 61.0511 28.1041 59.9676 27.1835C57.9156 25.4333 54.7566 26.8865 54.7566 29.5827C54.7553 30.0383 54.8532 30.4887 55.0436 30.9025C55.2341 31.3164 55.5124 31.6838 55.8593 31.9792C56.2489 32.3083 56.562 32.7184 56.7767 33.181C56.9915 33.6435 57.1028 34.1473 57.1028 34.6573C57.1028 35.1673 56.9915 35.6712 56.7767 36.1337C56.562 36.5963 56.2489 37.0064 55.8593 37.3355C55.5124 37.6308 55.2341 37.9981 55.0437 38.4119C54.8533 38.8256 54.7553 39.2759 54.7566 39.7314V39.7314C54.7566 42.4277 57.9167 43.8808 59.9676 42.1307C61.0511 41.21 61.9214 40.0648 62.5182 38.7743C63.1149 37.4837 63.4239 36.0789 63.4236 34.6571V34.6571Z" fill="#D12B10"/>
<path d="M57.104 34.6571C57.1036 33.9304 56.8777 33.2217 56.4574 32.6289C56.0371 32.0361 55.4432 31.5883 54.7577 31.3474V23.9899H52.4357V31.3474C51.751 31.5892 51.1583 32.0373 50.739 32.6301C50.3197 33.2228 50.0945 33.931 50.0945 34.6571C50.0945 35.3831 50.3197 36.0913 50.739 36.684C51.1583 37.2768 51.751 37.7249 52.4357 37.9667V45.3248H54.7577V37.9667C55.4432 37.7258 56.0371 37.278 56.4574 36.6852C56.8777 36.0924 57.1036 35.3837 57.104 34.6571Z" fill="#E04215"/>
<path d="M49.1562 29.1334C48.9794 29.1016 48.8225 29.0009 48.72 28.8534C48.6174 28.7059 48.5777 28.5237 48.6095 28.3469C48.6413 28.1701 48.742 28.0132 48.8895 27.9106C49.037 27.8081 49.2192 27.7683 49.396 27.8001C49.5801 27.8331 50.0154 27.9886 50.3961 28.1814C50.7768 28.3742 51.104 28.6047 51.0711 28.7889C51.0381 28.973 50.6515 29.0751 50.2271 29.1237C49.8026 29.1723 49.342 29.1663 49.1562 29.1334Z" fill="#FED173"/>
<path d="M48.478 32.368C48.3905 32.3523 48.3069 32.3195 48.232 32.2715C48.1571 32.2235 48.0924 32.1612 48.0417 32.0882C47.9909 32.0152 47.9549 31.9329 47.936 31.846C47.917 31.7591 47.9153 31.6693 47.931 31.5818C47.9467 31.4942 47.9795 31.4106 48.0275 31.3358C48.0755 31.2609 48.1378 31.1962 48.2108 31.1454C48.2838 31.0946 48.3661 31.0587 48.453 31.0397C48.5399 31.0207 48.6297 31.019 48.7172 31.0347C48.9008 31.0682 49.3361 31.2232 49.7173 31.416C50.0985 31.6088 50.4247 31.8393 50.3918 32.0235C50.3588 32.2076 49.9722 32.3097 49.5483 32.3583C49.1244 32.4069 48.6616 32.402 48.478 32.368Z" fill="#FED173"/>
<path d="M47.7296 35.4849C47.5525 35.4532 47.3954 35.3524 47.2926 35.2048C47.1899 35.0572 47.15 34.8748 47.1817 34.6978C47.2135 34.5208 47.3142 34.3637 47.4618 34.2609C47.6094 34.1582 47.7918 34.1183 47.9688 34.15C48.1529 34.1829 48.5876 34.3379 48.9689 34.5307C49.3501 34.7235 49.6763 34.9541 49.6433 35.1382C49.6104 35.3223 49.2237 35.4249 48.7998 35.4735C48.3759 35.5221 47.9137 35.5184 47.7296 35.4849Z" fill="#FED173"/>
<path d="M45.67 33.0624C45.4968 33.0271 45.3443 32.9254 45.2451 32.7791C45.1458 32.6329 45.1077 32.4536 45.1389 32.2796C45.1701 32.1056 45.268 31.9507 45.4119 31.8479C45.5557 31.7452 45.734 31.7028 45.9087 31.7297C46.0928 31.7627 46.5281 31.9176 46.9093 32.1077C47.2905 32.2978 47.6167 32.5311 47.5838 32.7152C47.5508 32.8994 47.1642 33.002 46.7397 33.0506C46.3153 33.0992 45.8558 33.0959 45.67 33.0624Z" fill="#FED173"/>
<path d="M45.9297 37.8085C45.8431 37.8314 45.7528 37.8369 45.664 37.8246C45.5753 37.8124 45.4898 37.7826 45.4126 37.7371C45.3355 37.6916 45.2681 37.6312 45.2144 37.5594C45.1607 37.4877 45.1218 37.406 45.1 37.3191C45.0781 37.2322 45.0737 37.1418 45.087 37.0532C45.1003 36.9646 45.1311 36.8795 45.1775 36.8029C45.224 36.7262 45.2852 36.6596 45.3576 36.6068C45.43 36.554 45.5121 36.516 45.5993 36.4952C45.7802 36.4499 46.2408 36.4121 46.6674 36.431C47.094 36.4499 47.4866 36.5255 47.5314 36.7069C47.5762 36.8883 47.2673 37.1389 46.9007 37.3592C46.534 37.5795 46.1112 37.7631 45.9297 37.8085Z" fill="#FED173"/>
<path d="M48.802 39.0397C48.6488 39.1334 48.4646 39.1623 48.29 39.1202C48.1154 39.0781 47.9647 38.9683 47.871 38.8151C47.7774 38.6618 47.7484 38.4776 47.7906 38.3031C47.8327 38.1285 47.9424 37.9778 48.0957 37.8841C48.255 37.7864 48.6837 37.6141 49.0963 37.5061C49.5089 37.3981 49.9063 37.3527 50.004 37.512C50.1018 37.6713 49.8809 38.0051 49.5958 38.322C49.3107 38.639 48.964 38.942 48.802 39.0397Z" fill="#FED173"/>
<path d="M49.1638 41.5556C49.0106 41.6492 48.8264 41.6782 48.6518 41.636C48.4772 41.5939 48.3265 41.4842 48.2328 41.3309C48.1392 41.1777 48.1102 40.9935 48.1524 40.8189C48.1945 40.6443 48.3042 40.4936 48.4575 40.4C48.6168 40.3028 49.0455 40.13 49.4581 40.022C49.8707 39.914 50.2681 39.8686 50.3658 40.0284C50.4636 40.1883 50.2427 40.5209 49.9576 40.8384C49.6725 41.156 49.3231 41.4578 49.1638 41.5556Z" fill="#FED173"/>
<path d="M58.0554 29.1334C58.143 29.1177 58.2266 29.0849 58.3014 29.0369C58.3763 28.9889 58.441 28.9266 58.4918 28.8536C58.5426 28.7806 58.5785 28.6983 58.5975 28.6114C58.6165 28.5245 58.6182 28.4347 58.6025 28.3472C58.5868 28.2596 58.554 28.176 58.5059 28.1012C58.4579 28.0263 58.3956 27.9616 58.3226 27.9108C58.2496 27.86 58.1673 27.8241 58.0804 27.8051C57.9935 27.7861 57.9038 27.7844 57.8162 27.8001C57.6321 27.8331 57.1968 27.9886 56.8161 28.1814C56.4354 28.3742 56.1082 28.6047 56.1417 28.7889C56.1752 28.973 56.5607 29.0751 56.9852 29.1237C57.4096 29.1723 57.874 29.1663 58.0554 29.1334Z" fill="#FED173"/>
<path d="M61.9161 36.3439C62.0036 36.3282 62.0872 36.2954 62.1621 36.2474C62.2369 36.1994 62.3016 36.1371 62.3524 36.0641C62.4032 35.9911 62.4391 35.9088 62.4581 35.8219C62.4771 35.735 62.4788 35.6452 62.4631 35.5577C62.4474 35.4701 62.4146 35.3865 62.3666 35.3117C62.3185 35.2368 62.2563 35.1721 62.1832 35.1213C62.1102 35.0705 62.0279 35.0346 61.941 35.0156C61.8542 34.9966 61.7644 34.9949 61.6768 35.0106C61.4927 35.0436 61.0575 35.1991 60.6768 35.3919C60.2961 35.5847 59.9694 35.8152 60.0023 35.9988C60.0352 36.1824 60.4213 36.2856 60.8458 36.3342C61.2702 36.3828 61.7319 36.3768 61.9161 36.3439Z" fill="#FED173"/>
<path d="M58.7342 32.368C58.8218 32.3523 58.9054 32.3195 58.9802 32.2715C59.0551 32.2235 59.1198 32.1612 59.1706 32.0882C59.2214 32.0152 59.2573 31.9329 59.2763 31.846C59.2953 31.7591 59.2969 31.6693 59.2812 31.5818C59.2655 31.4942 59.2327 31.4106 59.1847 31.3358C59.1367 31.2609 59.0744 31.1962 59.0014 31.1454C58.9284 31.0946 58.8461 31.0587 58.7592 31.0397C58.6723 31.0207 58.5825 31.019 58.495 31.0347C58.3114 31.0682 57.8762 31.2232 57.4949 31.416C57.1137 31.6088 56.7875 31.8393 56.8205 32.0235C56.8534 32.2076 57.24 32.3097 57.6639 32.3583C58.0878 32.4069 58.5501 32.402 58.7342 32.368Z" fill="#FED173"/>
<path d="M59.4821 35.4849C59.5698 35.4692 59.6535 35.4364 59.7284 35.3883C59.8034 35.3402 59.8682 35.2779 59.919 35.2048C59.9699 35.1317 60.0059 35.0493 60.0249 34.9624C60.0439 34.8754 60.0457 34.7855 60.0299 34.6978C60.0142 34.6102 59.9814 34.5265 59.9334 34.4515C59.8853 34.3765 59.823 34.3118 59.7499 34.2609C59.6768 34.21 59.5944 34.1741 59.5074 34.155C59.4204 34.136 59.3305 34.1343 59.2429 34.15C59.0593 34.1829 58.6241 34.3379 58.2428 34.5307C57.8616 34.7235 57.5354 34.9541 57.5684 35.1382C57.6013 35.3223 57.9879 35.4249 58.4118 35.4735C58.8357 35.5221 59.298 35.5184 59.4821 35.4849Z" fill="#FED173"/>
<path d="M58.4086 39.0397C58.5618 39.1335 58.7461 39.1626 58.9208 39.1206C59.0955 39.0785 59.2463 38.9688 59.3401 38.8156C59.4339 38.6624 59.463 38.4781 59.421 38.3034C59.3789 38.1287 59.2692 37.9779 59.116 37.8841C58.954 37.7864 58.5285 37.6141 58.1154 37.5061C57.7023 37.3981 57.3054 37.3527 57.2076 37.512C57.1099 37.6713 57.3308 38.0051 57.6159 38.322C57.901 38.639 58.252 38.942 58.4086 39.0397Z" fill="#FED173"/>
<path d="M58.0479 41.5556C58.2011 41.6492 58.3853 41.6782 58.5599 41.636C58.7345 41.5939 58.8852 41.4842 58.9788 41.3309C59.0725 41.1777 59.1015 40.9935 59.0593 40.8189C59.0172 40.6443 58.9074 40.4936 58.7542 40.4C58.5949 40.3028 58.1661 40.13 57.7536 40.022C57.341 39.914 56.9436 39.8686 56.8458 40.0284C56.7481 40.1883 56.969 40.5209 57.2541 40.8384C57.5392 41.156 57.8886 41.4578 58.0479 41.5556Z" fill="#FED173"/>
<path d="M17.6172 29.5625L19.7969 25.7422L11.1719 19.0156L7.375 25.5781L17.6172 29.5625ZM1.35156 36.9688L14.875 36.2188L14.8516 31.6953L0.765625 30.1484L1.35156 36.9688ZM11.2422 48.5938L20.1016 42.1484L18.0391 38.2578L7.67969 41.8906L11.2422 48.5938ZM22.7266 58.7188L27.7422 58.1562C27.6953 56.4922 27.6719 55.2734 27.6719 54.5234C27.6719 49.3672 28.1875 44.6797 29.2656 40.5078C29.8516 38.0703 30.8359 35.5156 32.1953 32.8438C33.2031 30.8984 34.1406 29.5391 35.0078 28.7188C35.5938 28.1797 36.0625 27.8984 36.3672 27.8984C36.625 27.8984 36.8594 28.0859 37.1172 28.4375C37.75 29.3516 38.0547 30.5703 38.0547 32.1172C38.0547 33.1953 37.8906 34.2266 37.5391 35.1875C37.0703 36.5938 36.25 37.7422 35.0547 38.6328C33.7422 39.5938 32.0781 40.1094 30.0391 40.1797L30.1328 45.2188C32.7578 45.1484 35.0312 44.5859 36.9531 43.4609C38.6641 42.4766 40.0469 41.1172 41.125 39.3828C41.6172 38.5859 41.9922 37.7422 42.2969 36.8516C42.8125 35.3281 43.0703 33.7578 43.0703 32.1172C43.0703 30.3125 42.7656 28.6953 42.1797 27.2188C41.4297 25.4375 40.3984 24.1719 39.1094 23.4453C38.4531 23.0703 37.8906 22.8594 37.4453 22.8359C37 22.8125 36.6953 22.7891 36.5781 22.7891C35.2188 22.7891 33.8828 23.2812 32.5938 24.2422C30.4844 25.8359 28.5391 28.625 26.7344 32.6094C26.8047 29.1406 26.9922 26.0703 27.3438 23.3984L22.3516 22.7656C21.9766 25.6719 21.7422 29.0469 21.6719 32.8906C21.6484 34.5078 21.6484 36.5938 21.6484 39.1484C21.7422 45.0078 21.9766 50.1641 22.3281 54.6641C22.4688 56.6094 22.6094 57.9688 22.7266 58.7188ZM75.9297 47.8203C76.0703 47.4453 76.3516 46.3672 76.7969 44.5625C78.25 38.0938 79.6562 33.3828 80.9922 30.4297C81.5781 33.8516 81.8594 37.3906 81.8594 41.0703C81.8594 42.0312 81.8125 42.8516 81.7422 43.5547L86.7578 44.1641C86.875 43.2031 86.9219 42.0312 86.9219 40.6953C86.9219 37.9297 86.7344 35.0703 86.3359 32.0703C85.9375 29 85.4219 26.7734 84.8125 25.4375C84.1094 23.9609 83.1016 23.2344 81.7891 23.2344C80.3125 23.2344 79 24.0547 77.8984 25.6484C76.4922 27.6406 75.0156 31.4609 73.4453 37.0625C71.7109 30.3359 70.7266 25.8359 70.4922 23.5156L65.4766 23.7734C64.5625 26.9844 63.8359 29.8906 63.2969 32.4219C62.3594 36.8281 61.8906 40.6719 61.8906 44L61.9141 45.1484L66.9531 44.9375L66.9297 43.9297C66.9297 41.375 67.2344 38.5625 67.8438 35.4453C68.3828 37.5312 68.8984 39.4766 69.3906 41.2812C69.8828 43.1094 70.2812 44.6094 70.6094 45.7578C70.9375 46.9297 71.125 47.5625 71.1484 47.6562L75.9297 47.8203ZM106.75 49.5312L120.086 48.9688L119.875 43.9531L111.297 44.3047C111.109 41.75 111.016 38.75 111.016 35.3047C111.016 32 111.18 28.9531 111.531 26.1875C111.906 23.3047 112.445 20.9609 113.148 19.1562C113.992 17.0234 115 15.9453 116.148 15.9453C116.734 15.9453 117.156 16.1094 117.391 16.4141C117.859 17.1172 118.094 18.2188 118.094 19.6953C118.094 21.0312 117.859 22.4609 117.391 23.9844C116.922 25.4141 116.289 26.5859 115.539 27.5C114.719 28.4844 113.758 28.9766 112.703 28.9766L112.469 34.0156C113.523 34.0156 114.438 33.8984 115.188 33.6641C116.828 33.1484 118.258 32.1172 119.523 30.5703C120.648 29.2109 121.539 27.5469 122.172 25.5781C122.805 23.6094 123.133 21.6641 123.133 19.7422C123.133 18.0547 122.875 16.5312 122.383 15.1953C121.258 12.3359 119.172 10.9062 116.148 10.9062C112 10.9062 109.094 14.0703 107.453 20.4219C106.469 24.4297 105.977 29.5859 105.977 35.8672C105.977 39.2656 106.07 42.1484 106.281 44.5625C106.375 45.8516 106.516 47.4922 106.75 49.5312ZM131.195 46.0391C132.883 46.0391 134.43 45.6172 135.812 44.7969C137.688 43.625 139.094 41.8438 140.055 39.4531L135.367 37.6016C134.477 39.875 133.094 41.0234 131.195 41.0234C130.703 41.0234 130.164 40.9062 129.602 40.6953C128.688 40.3672 127.961 39.8516 127.398 39.1484C126.859 38.4688 126.578 37.4844 126.578 36.1953C126.578 34.6484 126.93 33.125 127.633 31.6484C128.172 30.5469 128.828 29.7031 129.578 29.1172C130.211 28.625 130.891 28.3906 131.57 28.3906C131.992 28.3906 132.367 28.5078 132.695 28.7188C133.305 29.1875 133.609 29.7969 133.609 30.5938C133.609 31.6484 133.023 32.3984 131.875 32.8672C131.266 33.1016 130.609 33.2188 129.906 33.2188C129.273 33.2188 128.852 33.2188 128.617 33.1953L128.289 38.2344C128.594 38.2578 128.945 38.2578 129.297 38.2578C130.211 38.2578 131.008 38.2109 131.688 38.1172C132.672 37.9531 133.609 37.6484 134.5 37.2031C135.648 36.6172 136.562 35.8672 137.242 34.9531C138.18 33.6641 138.648 32.2109 138.648 30.6172C138.648 29.6797 138.461 28.7422 138.086 27.7578C137.547 26.4688 136.75 25.4375 135.672 24.6641C134.477 23.7734 133.117 23.3281 131.594 23.3281C130.797 23.3281 130.094 23.4219 129.484 23.6328C127.633 24.1484 126.062 25.2266 124.727 26.8906C123.508 28.3906 122.617 30.1719 122.078 32.2109C121.727 33.5234 121.539 34.8594 121.539 36.2188C121.539 39.7109 122.875 42.3828 125.547 44.2344C127 45.2422 128.617 45.8281 130.398 46.0156L131.195 46.0391ZM161.148 48.0781L164.758 44.5625C163.82 43.6016 163.164 42.3828 162.812 40.9062C162.414 39.3125 162.227 37.0625 162.227 34.1797C162.227 32.5391 162.18 31.2266 162.109 30.2422C161.758 26.4453 160.539 23.8906 158.43 22.5547C157.047 21.7109 155.195 21.2891 152.852 21.2891C151.352 21.2891 149.594 21.4766 147.578 21.8516L148.516 26.8203C150.062 26.5156 151.375 26.375 152.43 26.375C153.766 26.375 154.82 26.6094 155.523 27.1016C156.25 27.5703 156.695 28.3203 156.906 29.3516C156.953 29.6328 157 29.9141 157.023 30.2188C157.023 30.9922 156.602 32.3281 155.758 34.2031C154.867 36.1719 153.906 37.8594 152.875 39.2656C151.469 41.1172 150.297 42.0547 149.289 42.0547C148.867 42.0547 148.445 41.8438 147.977 41.4453C146.945 40.5312 146.43 39.4766 146.43 38.3047C146.43 37.625 146.594 37.0391 146.922 36.5469C147.508 35.6797 148.445 35.2344 149.734 35.2344C150.672 35.2344 151.75 35.5391 152.945 36.125L155.148 31.5781C153.227 30.6641 151.375 30.2188 149.594 30.2188C148.234 30.2188 147.016 30.4766 145.938 31.0156C144.602 31.625 143.523 32.5391 142.703 33.7812C141.812 35.1406 141.367 36.6406 141.367 38.2812C141.367 39.8984 141.812 41.4453 142.68 42.8516C143.617 44.4453 144.859 45.6172 146.359 46.3906C147.297 46.8594 148.258 47.0938 149.289 47.0938C150.391 47.0938 151.492 46.8125 152.57 46.2266C154.398 45.2656 156.109 43.5781 157.68 41.1875C158.195 43.9531 159.367 46.25 161.148 48.0781ZM166.211 45.5703L171.18 44.9609V44.4922C171.227 42.4297 171.391 40.6016 171.672 39.0312C172.023 37.2031 172.516 35.5391 173.219 34.0391C175.023 30.1016 177.883 28.0859 181.844 28.0391L181.797 23C176.688 23.0703 172.797 25.1328 170.125 29.2109L170.102 26.6094H165.062L165.086 30.2891C165.203 37.4609 165.578 42.5703 166.211 45.5703ZM189.508 45.3359C192.086 36.7344 194.383 31.3906 196.375 29.3047L196.445 29.2578C196.469 29.2578 196.492 29.2812 196.539 29.3281C196.562 29.3516 196.609 29.4219 196.656 29.5156C196.703 29.6094 196.75 29.7031 196.773 29.7969C196.797 29.9141 196.844 29.9844 196.867 30.0547C196.891 30.125 196.891 30.1953 196.914 30.2188C197.406 31.7422 197.711 33.3359 197.828 35.0469C197.922 36.7578 197.969 38.1406 197.969 39.1484C197.969 40.8359 197.898 42.6406 197.758 44.5391L202.797 44.9375C202.938 43.0156 203.031 41.1641 203.031 39.3828C203.031 36.8047 202.844 34.3906 202.516 32.1641C201.648 26.6094 199.68 23.8438 196.609 23.8438C195.32 23.8438 194.055 24.4766 192.836 25.7188C191.594 26.9844 190.352 29.0234 189.039 31.8359C188.922 28.9766 188.875 27.0312 188.875 26V25.5312L183.836 25.25V25.6953C183.836 28.1797 184.023 33.5469 184.445 41.7969L184.562 44.7266L189.508 45.3359ZM206.523 24.0781L211 22.8125L209.664 18.5234L205.188 19.8125L206.523 24.0781ZM205.328 45.0781L210.32 44.4219C210.086 42.5469 209.969 39.9219 209.969 36.5469C209.969 34.9766 210.016 33.0312 210.109 30.6641C210.227 27.5938 210.297 25.9297 210.344 25.6484L205.305 25.3438C205.258 25.6719 205.164 27.4297 205.07 30.5703C204.977 33.0078 204.93 34.9766 204.93 36.4531C204.93 40.1094 205.07 42.9688 205.328 45.0781ZM218.008 45.3359C220.586 36.7344 222.883 31.3906 224.875 29.3047L224.945 29.2578C224.969 29.2578 224.992 29.2812 225.039 29.3281C225.062 29.3516 225.109 29.4219 225.156 29.5156C225.203 29.6094 225.25 29.7031 225.273 29.7969C225.297 29.9141 225.344 29.9844 225.367 30.0547C225.391 30.125 225.391 30.1953 225.414 30.2188C225.906 31.7422 226.211 33.3359 226.328 35.0469C226.422 36.7578 226.469 38.1406 226.469 39.1484C226.469 40.8359 226.398 42.6406 226.258 44.5391L231.297 44.9375C231.438 43.0156 231.531 41.1641 231.531 39.3828C231.531 36.8047 231.344 34.3906 231.016 32.1641C230.148 26.6094 228.18 23.8438 225.109 23.8438C223.82 23.8438 222.555 24.4766 221.336 25.7188C220.094 26.9844 218.852 29.0234 217.539 31.8359C217.422 28.9766 217.375 27.0312 217.375 26V25.5312L212.336 25.25V25.6953C212.336 28.1797 212.523 33.5469 212.945 41.7969L213.062 44.7266L218.008 45.3359ZM244.328 62.2578C245.594 62.2578 246.766 61.9766 247.867 61.4375C252.109 59.3516 254.242 53.4453 254.242 43.7422C254.242 39.4531 253.82 34.4844 252.977 28.8125L248.031 28.625C247.141 32.5625 246.18 35.5859 245.195 37.7188C243.672 40.9766 242.008 42.6172 240.25 42.6172C239.945 42.6172 239.711 42.5 239.5 42.2891C238.961 41.7734 238.68 40.8125 238.68 39.4062C238.68 38.3516 238.844 37.2734 239.172 36.1719C239.664 34.5781 240.391 33.125 241.398 31.8828C243.883 28.7422 247.281 27.1953 251.617 27.1953L252.719 27.2188L253.047 22.2031C252.508 22.1562 251.992 22.1328 251.477 22.1328C248.312 22.1562 245.477 22.8125 243.016 24.1016C240.719 25.2734 238.82 26.8906 237.297 28.9297C235.914 30.7578 234.93 32.7031 234.32 34.7891C233.875 36.3594 233.641 37.8594 233.641 39.3359C233.641 41.5156 234.133 43.3906 235.141 44.9375C236.289 46.7422 237.977 47.6562 240.18 47.6562C243.836 47.6562 246.812 45.4766 249.156 41.0938C249.18 41.9375 249.203 42.8047 249.203 43.6484C249.203 50.8906 248.125 55.2266 245.969 56.6797C245.453 57.0312 244.914 57.1953 244.352 57.1953C243.812 57.1953 243.344 57.0312 242.992 56.7031C242.523 56.3047 242.312 55.8125 242.312 55.2266C242.312 54.2891 243.016 53.8203 244.469 53.8203C245.055 53.8203 245.734 53.9141 246.555 54.1016L247.703 49.2031C246.625 48.9453 245.852 48.8281 245.359 48.8047C244.867 48.8047 244.586 48.8047 244.492 48.8047C242.852 48.8047 241.469 49.1328 240.32 49.8125C239.102 50.5391 238.234 51.5234 237.742 52.7656C237.414 53.5625 237.25 54.3828 237.25 55.2031C237.25 56.375 237.531 57.4531 238.07 58.4609C238.633 59.6328 239.5 60.5703 240.695 61.2734C241.773 61.9297 242.969 62.2578 244.328 62.2578ZM258.391 29.3516L268.727 25.7188L265.164 19.0156L256.328 25.4375L258.391 29.3516ZM275.664 37.4375L275.055 30.6406L261.555 31.3672L261.578 35.9141L275.664 37.4375ZM265.258 48.5938L269.031 42.0078L258.812 38.0234L256.633 41.8672L265.258 48.5938Z" fill="white"/>
</svg>
