<svg id="Layer_1" data-name="Layer 1" xmlns="http://www.w3.org/2000/svg" viewBox="0 0 500 500"><defs><style>.cls-1{fill:#e04215;}.cls-2{fill:#d12b10;}.cls-3{fill:#fed173;}</style></defs><title>ITALY</title><circle class="cls-1" cx="251.78" cy="234.39" r="216"/><path class="cls-2" d="M186.83,234.39a64.75,64.75,0,0,1,23-49.59,58.07,58.07,0,0,0,20.42-44.38h0c0-49.93-58.52-76.84-96.5-44.43a181.68,181.68,0,0,0,0,276.8c38,32.41,96.5,5.5,96.5-44.43h0A58.06,58.06,0,0,0,209.86,284,64.77,64.77,0,0,1,186.83,234.39Z"/><path class="cls-2" d="M433.77,234.39a181.56,181.56,0,0,0-64-138.4c-38-32.41-96.5-5.5-96.5,44.43h0a58.07,58.07,0,0,0,20.42,44.38,64.92,64.92,0,0,1,0,99.19,58.06,58.06,0,0,0-20.42,44.37h0c0,49.93,58.52,76.84,96.5,44.43A181.56,181.56,0,0,0,433.77,234.39Z"/><path class="cls-1" d="M316.74,234.39a65,65,0,0,0-43.45-61.29V36.85h-43V173.1a65,65,0,0,0,0,122.58V431.94h43V295.68A65,65,0,0,0,316.74,234.39Z"/><path class="cls-3" d="M169.56,132.1A12.54,12.54,0,0,1,174,107.41c3.41.61,11.47,3.49,18.52,7.06s13.11,7.84,12.5,11.25-7.77,5.3-15.63,6.2S173,132.71,169.56,132.1Z"/><path class="cls-3" d="M127,153.55a12.54,12.54,0,1,1,4.43-24.69c3.41.61,11.47,3.49,18.52,7.06s13.1,7.84,12.49,11.24-7.76,5.31-15.62,6.21S130.39,154.16,127,153.55Z"/><path class="cls-3" d="M157,192a12.54,12.54,0,1,1,4.43-24.69c3.4.62,11.46,3.49,18.52,7.06s13.1,7.84,12.49,11.25-7.77,5.3-15.62,6.2S160.4,192.63,157,192Z"/><path class="cls-3" d="M143.14,249.72A12.54,12.54,0,1,1,147.57,225c3.41.61,11.46,3.48,18.52,7.05s13.1,7.84,12.49,11.25-7.77,5.31-15.62,6.21S146.55,250.34,143.14,249.72Z"/><path class="cls-3" d="M105,204.86a12.54,12.54,0,0,1,4.42-24.68c3.41.61,11.47,3.48,18.53,7s13.1,7.84,12.49,11.25-7.77,5.31-15.63,6.21S108.44,205.48,105,204.86Z"/><path class="cls-3" d="M109.81,292.75a12.54,12.54,0,1,1-6.12-24.32c3.35-.84,11.88-1.54,19.78-1.19s15.17,1.75,16,5.11-4.89,8-11.68,12.08S113.17,291.91,109.81,292.75Z"/><path class="cls-3" d="M163,315.55a12.54,12.54,0,0,1-13.08-21.4c2.95-1.81,10.89-5,18.53-7s15-2.84,16.81.11-2.28,9.13-7.56,15S166,313.74,163,315.55Z"/><path class="cls-3" d="M169.7,362.14a12.54,12.54,0,0,1-13.08-21.4c2.95-1.8,10.89-5,18.53-7s15-2.84,16.81.12-2.28,9.12-7.56,15S172.65,360.33,169.7,362.14Z"/><path class="cls-3" d="M334.36,132.1a12.54,12.54,0,1,0-4.43-24.69c-3.41.61-11.47,3.49-18.52,7.06s-13.11,7.84-12.49,11.25,7.76,5.3,15.62,6.2S331,132.71,334.36,132.1Z"/><path class="cls-3" d="M376.94,153.55a12.54,12.54,0,1,0-4.43-24.69c-3.41.61-11.47,3.49-18.52,7.06s-13.1,7.84-12.49,11.24,7.76,5.31,15.62,6.21S373.53,154.16,376.94,153.55Z"/><path class="cls-3" d="M346.93,192a12.54,12.54,0,1,0-4.43-24.69c-3.4.62-11.46,3.49-18.52,7.06s-13.1,7.84-12.49,11.25,7.77,5.3,15.62,6.2S343.52,192.63,346.93,192Z"/><path class="cls-3" d="M360.78,249.72A12.54,12.54,0,1,0,356.35,225c-3.4.61-11.46,3.48-18.52,7.05s-13.1,7.84-12.49,11.25,7.77,5.31,15.62,6.21S357.37,250.34,360.78,249.72Z"/><path class="cls-3" d="M398.88,204.86a12.54,12.54,0,0,0-4.42-24.68c-3.41.61-11.47,3.48-18.53,7s-13.1,7.84-12.49,11.25,7.77,5.31,15.63,6.21S395.48,205.48,398.88,204.86Z"/><path class="cls-3" d="M394.11,292.75a12.54,12.54,0,0,0,6.13-24.32c-3.36-.84-11.89-1.54-19.79-1.19s-15.17,1.75-16,5.11,4.89,8,11.68,12.08S390.75,291.91,394.11,292.75Z"/><path class="cls-3" d="M340.9,315.55A12.54,12.54,0,0,0,354,294.15c-3-1.81-10.88-5-18.53-7s-15-2.84-16.81.11,2.28,9.13,7.56,15S338,313.74,340.9,315.55Z"/><path class="cls-3" d="M334.22,362.14a12.54,12.54,0,0,0,13.08-21.4c-2.95-1.8-10.89-5-18.53-7s-15-2.84-16.81.12,2.28,9.12,7.56,15S331.27,360.33,334.22,362.14Z"/></svg>